<?xml version="1.0" standalone="no"?>
<!DOCTYPE svg PUBLIC "-//W3C//DTD SVG 20010904//EN"
 "http://www.w3.org/TR/2001/REC-SVG-20010904/DTD/svg10.dtd">
<svg version="1.0" xmlns="http://www.w3.org/2000/svg"
 width="100.000000pt" height="100.000000pt" viewBox="0 0 100.000000 100.000000"
 preserveAspectRatio="xMidYMid meet">

<g transform="translate(0.000000,100.000000) scale(0.100000,-0.100000)"
fill="#000000" stroke="none">
<path d="M492 919 c-54 -27 -113 -108 -150 -206 l-27 -73 -57 0 c-47 0 -59 -4
-68 -20 -10 -19 -8 -20 50 -20 33 0 60 -3 60 -6 0 -3 -18 -97 -40 -207 -44
-220 -69 -286 -113 -301 -36 -13 -57 5 -39 34 16 26 15 45 -4 64 -20 20 -48
20 -68 0 -25 -24 -19 -62 13 -95 36 -36 79 -38 141 -6 81 41 136 156 180 372
11 55 22 110 25 123 5 20 11 22 65 22 49 0 61 3 70 20 10 19 8 20 -55 20 l-67
0 7 33 c13 60 67 187 92 217 13 17 34 30 44 30 24 0 36 -27 20 -43 -26 -26 0
-77 39 -77 53 0 65 66 21 111 -36 36 -78 38 -139 8z"/>
<path d="M633 616 c-15 -13 -38 -42 -50 -64 -22 -39 -23 -40 -3 -45 13 -3 21
1 25 12 3 10 14 27 26 39 40 44 71 21 88 -68 l12 -61 -50 -57 c-38 -45 -56
-58 -76 -57 -34 0 -55 -27 -39 -52 23 -37 49 -27 109 41 32 37 61 66 65 66 4
0 11 -16 15 -37 3 -20 20 -49 36 -66 26 -25 35 -29 66 -24 42 7 71 32 101 86
22 38 22 39 2 44 -13 3 -21 -1 -25 -12 -3 -10 -16 -28 -29 -40 -33 -31 -63
-21 -75 27 -26 99 -25 103 27 162 37 41 56 54 77 55 34 0 55 27 39 52 -23 37
-49 27 -110 -41 -31 -37 -61 -66 -65 -66 -4 0 -10 16 -14 37 -9 48 -54 93 -93
93 -17 0 -43 -10 -59 -24z"/>
</g>
</svg>
